<svg xmlns="http://www.w3.org/2000/svg" width="430" height="430" style="width:100%;height:100%;transform:translate3d(0,0,0);content-visibility:visible" viewBox="0 0 430 430"><defs><clipPath id="f"><path d="M0 0h430v430H0z"/></clipPath><clipPath id="g"><path d="M0 0h430v430H0z"/></clipPath><clipPath id="d"><path d="M0 0h430v430H0z"/></clipPath><filter id="a" width="100%" height="100%" x="0%" y="0%" filterUnits="objectBoundingBox"><feComponentTransfer in="SourceGraphic"><feFuncA tableValues="1.0 0.0" type="table"/></feComponentTransfer></filter><filter id="i" width="300%" height="300%" x="-100%" y="-100%"><feGaussianBlur result="filter_result_0" stdDeviation="52.5 52.5"/></filter><mask id="e" mask-type="alpha"><g filter="url(#a)"><path fill="#fff" d="M0 0h430v430H0z" opacity="0"/><use xmlns:ns1="http://www.w3.org/1999/xlink" ns1:href="#b"/></g></mask><mask id="h" mask-type="alpha"><use xmlns:ns2="http://www.w3.org/1999/xlink" ns2:href="#c"/></mask><path id="b" fill="red" d="M341.48 176.1s-21-55.1-128-55c-102 .1-124.96 55-124.96 55 6.39 60.48 59 107.13 126.48 107.13s120.09-46.65 126.48-107.13z" style="display:block"/><g id="c" fill-opacity="0" stroke-linecap="round" stroke-linejoin="round" stroke-width="11.97" clip-path="url(#d)" style="display:block"><path stroke="#08A88A" d="M-91.858 12.158C-68.271-2.837-35.082-12.158 1.675-12.158c35.048 0 66.845 8.492 90.183 22.276" class="secondary" style="display:block" transform="translate(215 134.011)"/><g mask="url(#e)" style="display:block"><path stroke="#08A88A" d="M261.249 186.5c0 25.542-20.707 46.249-46.249 46.249s-46.249-20.707-46.249-46.249 20.707-46.249 46.249-46.249 46.249 20.707 46.249 46.249z" class="secondary"/><path stroke="#121331" d="M339.5 186.5c-27.839 38.616-73.222 63.754-124.487 63.754S118.339 225.116 90.5 186.5" class="primary"/></g><path stroke="#121331" d="M-76.998-115.432c6.389 60.474 59 107.128 126.478 107.128s120.089-46.654 126.478-107.128M49.48 23.93V-8.308m55.617 23.455L92.819-15.147m60.938 4.678-23.076-24.696m58.951-14.247-31.09-16.119m50.595-31.191-35.354-5.598m-283.997 5.507 35.354-5.599m-15.795 53.001 31.091-16.12m4.761 55.067 23.076-24.696m25.588 50.307L6.139-15.147" class="primary" style="display:block" transform="translate(165.52 291.535)"/></g></defs><g clip-path="url(#f)"><g clip-path="url(#g)" mask="url(#h)" style="display:block"><g filter="url(#i)" transform="rotate(-94 246.006 -9.298) scale(2.4)"><g class="design"><path fill="#4BE1EC" d="M0-250c137.975 0 250 112.025 250 250S137.975 250 0 250-250 137.975-250 0-137.975-250 0-250z" class="primary"/></g><g class="design"><path fill="#CB5EEE" d="M113.242-295.384c97.478 0 176.5 79.022 176.5 176.5s-79.022 176.5-176.5 176.5c-43.948 0-74.396-34.057-105.29-60.631-37.631-32.369-71.21-62.338-71.21-115.869 0-97.478 79.022-176.5 176.5-176.5z" class="secondary"/></g></g></g></g></svg>
